<?xml version="1.0" standalone="no"?>
<!DOCTYPE svg PUBLIC "-//W3C//DTD SVG 20010904//EN"
 "http://www.w3.org/TR/2001/REC-SVG-20010904/DTD/svg10.dtd">
<svg version="1.0" xmlns="http://www.w3.org/2000/svg"
 width="360.000000pt" height="360.000000pt" viewBox="0 0 360.000000 360.000000"
 preserveAspectRatio="xMidYMid meet">

<g transform="translate(0.000000,360.000000) scale(0.100000,-0.100000)"
fill="#F05D23" stroke="none">
<path d="M725 3209 c-212 -22 -400 -195 -444 -407 -15 -74 -15 -1930 0 -2004
44 -211 226 -379 442 -408 101 -13 2052 -13 2157 0 211 27 396 199 439 408 15
74 15 1930 0 2004 -32 153 -136 286 -280 357 -70 35 -99 43 -179 51 -116 12
-2020 11 -2135 -1z m2060 -183 c186 -77 317 -225 360 -407 22 -95 22 -1543 0
-1638 -43 -182 -174 -330 -360 -407 l-70 -29 -915 0 -915 0 -70 29 c-186 77
-317 225 -360 407 -22 95 -22 1543 0 1638 36 151 154 303 291 374 134 69 83
66 1074 64 l895 -2 70 -29z"/>
<path d="M921 2939 c-121 -24 -254 -123 -314 -236 -49 -92 -57 -157 -57 -495
l0 -307 35 15 c44 18 59 18 102 -3 96 -45 96 -181 0 -226 -43 -21 -58 -21
-102 -3 l-35 15 0 -307 c0 -338 8 -403 57 -495 62 -117 192 -212 322 -237 34
-6 360 -10 880 -10 898 0 880 -1 993 56 65 33 154 122 191 191 49 92 57 157
57 495 l0 307 -37 -15 c-71 -30 -154 14 -168 89 -10 50 -1 80 35 116 39 38 85
48 133 27 l37 -15 0 307 c0 338 -8 403 -57 495 -62 117 -192 212 -322 237 -66
12 -1686 12 -1750 -1z m731 -355 c-5 -89 3 -127 35 -158 24 -24 32 -26 113
-26 81 0 89 2 113 26 32 31 40 69 35 158 -1 36 1 66 6 66 27 0 141 -36 202
-65 483 -223 654 -815 363 -1260 -87 -134 -213 -241 -363 -310 -61 -29 -175
-65 -202 -65 -5 0 -7 30 -6 66 5 89 -3 127 -35 158 -24 24 -32 26 -113 26 -81
0 -89 -2 -113 -26 -32 -31 -40 -69 -35 -158 1 -36 -1 -66 -6 -66 -27 0 -141
36 -202 65 -254 117 -435 344 -489 614 -21 102 -16 302 10 396 45 164 164 344
293 446 88 68 210 133 304 159 97 28 94 30 90 -46z"/>
<path fill="#4db2f9" d="M1235 1951 c-148 -67 -131 -265 25 -312 113 -34 235 87 202 200 -16
53 -48 90 -96 112 -51 23 -80 23 -131 0z"/>
<path fill="#4db2f9" d="M2234 1951 c-107 -49 -133 -184 -50 -267 66 -66 157 -67 231 -3 87
77 61 220 -49 270 -52 23 -80 23 -132 0z"/>
</g>
</svg>
